<?xml version="1.0" standalone="no"?>
<!DOCTYPE svg PUBLIC "-//W3C//DTD SVG 20010904//EN"
 "http://www.w3.org/TR/2001/REC-SVG-20010904/DTD/svg10.dtd">
<svg version="1.0" xmlns="http://www.w3.org/2000/svg"
 width="700.000000pt" height="700.000000pt" viewBox="0 0 700.000000 700.000000"
 preserveAspectRatio="xMidYMid meet">
<metadata>
Created by potrace 1.14, written by Peter Selinger 2001-2017
</metadata>
<g transform="translate(0.000000,700.000000) scale(0.100000,-0.100000)"
fill="#000000" stroke="none">
<path d="M1657 6409 c-171 -25 -348 -156 -426 -313 -66 -134 -61 65 -61 -2596
0 -2666 -5 -2461 63 -2600 37 -75 146 -192 220 -234 26 -16 80 -40 120 -55
l72 -26 1855 0 1855 0 73 27 c41 15 99 42 129 60 74 44 172 152 211 230 67
136 62 -66 62 2598 0 2664 5 2462 -62 2598 -39 78 -137 186 -211 230 -30 18
-88 45 -129 60 l-73 27 -1820 1 c-1001 1 -1846 -2 -1878 -7z m1271 -966 l2
-303 195 0 195 0 -2 -177 -3 -178 -192 -3 -193 -2 0 -550 0 -550 -220 0 -220
0 0 550 0 550 -255 0 -255 0 0 180 0 180 255 0 255 0 0 305 0 305 218 -2 217
-3 3 -302z m989 -329 c322 -47 588 -173 731 -347 234 -286 218 -784 -35 -1057
-53 -58 -208 -171 -254 -185 -18 -6 -2 -17 87 -60 197 -97 324 -217 408 -389
77 -156 105 -316 86 -498 -30 -294 -151 -498 -383 -642 -271 -169 -653 -240
-1169 -216 -242 11 -359 23 -506 51 -249 48 -349 105 -382 220 -6 20 -10 290
-10 676 l0 643 220 0 220 0 0 -584 c0 -548 1 -585 18 -590 36 -12 218 -35 359
-47 180 -14 474 -7 598 16 113 20 253 67 325 108 30 17 82 58 116 91 101 101
144 218 144 391 0 114 -16 188 -59 273 -77 153 -245 269 -463 319 -57 13 -144
18 -393 22 l-320 6 -3 178 -2 177 187 0 c344 0 493 22 639 91 135 64 231 180
269 324 17 67 20 218 4 284 -48 212 -253 351 -581 396 l-48 6 0 184 0 185 48
-6 c26 -3 93 -12 149 -20z"/>
</g>
</svg>
